Amstelvar-Roman-wghtmin.ufo
<glyph name="exclam" format="2">
  <advance width="610"/>
  <unicode hex="0021"/>
  <outline>
    <contour>
      <point x="209" y="73" type="qcurve" smooth="yes"/>
      <point x="209" y="112"/>
      <point x="263" y="169"/>
      <point x="305" y="169" type="qcurve" smooth="yes"/>
      <point x="347" y="169"/>
      <point x="401" y="112"/>
      <point x="401" y="73" type="qcurve" smooth="yes"/>
      <point x="401" y="35"/>
      <point x="347" y="-22"/>
      <point x="305" y="-22" type="qcurve" smooth="yes"/>
      <point x="263" y="-22"/>
      <point x="209" y="35"/>
    </contour>
    <contour>
      <point x="268" y="1421" type="line" smooth="yes"/>
      <point x="259" y="1488"/>
      <point x="281" y="1576"/>
      <point x="300" y="1577" type="qcurve" smooth="yes"/>
      <point x="320" y="1578"/>
      <point x="341" y="1491"/>
      <point x="335" y="1422" type="qcurve" smooth="yes"/>
      <point x="307" y="1161" type="line"/>
      <point x="316" y="800" type="line"/>
      <point x="327" y="435" type="line"/>
      <point x="280" y="435" type="line"/>
      <point x="291" y="800" type="line"/>
      <point x="295" y="1161" type="line"/>
    </contour>
  </outline>
</glyph>
<glyph name="ampersand" format="2">
  <advance width="1546"/>
  <unicode hex="0026"/>
  <outline>
    <contour>
      <point x="497" y="-28" type="qcurve" smooth="yes"/>
      <point x="269" y="-27"/>
      <point x="60" y="193"/>
      <point x="62" y="341" type="qcurve" smooth="yes"/>
      <point x="64" y="495"/>
      <point x="262" y="704"/>
      <point x="477" y="827" type="qcurve" smooth="yes"/>
      <point x="635" y="918"/>
      <point x="815" y="1100"/>
      <point x="815" y="1204" type="qcurve" smooth="yes"/>
      <point x="815" y="1313"/>
      <point x="657" y="1470"/>
      <point x="531" y="1470" type="qcurve" smooth="yes"/>
      <point x="415" y="1470"/>
      <point x="275" y="1317"/>
      <point x="275" y="1220" type="qcurve" smooth="yes"/>
      <point x="275" y="1146"/>
      <point x="332" y="987"/>
      <point x="390" y="946" type="qcurve" smooth="yes"/>
      <point x="450" y="901"/>
      <point x="689" y="721"/>
      <point x="757" y="647" type="qcurve" smooth="yes"/>
      <point x="830" y="565"/>
      <point x="969" y="310"/>
      <point x="1033" y="216" type="qcurve" smooth="yes"/>
      <point x="1088" y="138"/>
      <point x="1210" y="32"/>
      <point x="1291" y="32" type="qcurve" smooth="yes"/>
      <point x="1386" y="32"/>
      <point x="1543" y="177"/>
      <point x="1581" y="235" type="qcurve"/>
      <point x="1613" y="208" type="line"/>
      <point x="1557" y="120"/>
      <point x="1390" y="-22"/>
      <point x="1290" y="-34" type="qcurve" smooth="yes"/>
      <point x="1186" y="-47"/>
      <point x="1046" y="49"/>
      <point x="998" y="113" type="qcurve" smooth="yes"/>
      <point x="953" y="173"/>
      <point x="767" y="517"/>
      <point x="704" y="589" type="qcurve" smooth="yes"/>
      <point x="639" y="663"/>
      <point x="400" y="837"/>
      <point x="339" y="890" type="qcurve" smooth="yes"/>
      <point x="271" y="951"/>
      <point x="207" y="1073"/>
      <point x="209" y="1196" type="qcurve" smooth="yes"/>
      <point x="211" y="1326"/>
      <point x="410" y="1516"/>
      <point x="557" y="1516" type="qcurve" smooth="yes"/>
      <point x="696" y="1516"/>
      <point x="872" y="1329"/>
      <point x="872" y="1204" type="qcurve" smooth="yes"/>
      <point x="872" y="1075"/>
      <point x="671" y="881"/>
      <point x="486" y="779" type="qcurve" smooth="yes"/>
      <point x="323" y="689"/>
      <point x="149" y="488"/>
      <point x="147" y="367" type="qcurve" smooth="yes"/>
      <point x="145" y="227"/>
      <point x="331" y="44"/>
      <point x="489" y="44" type="qcurve" smooth="yes"/>
      <point x="718" y="43"/>
      <point x="1232" y="404"/>
      <point x="1351" y="617" type="qcurve"/>
      <point x="1386" y="586" type="line"/>
      <point x="1251" y="363"/>
      <point x="725" y="-29"/>
    </contour>
  </outline>
</glyph>
<glyph name="hyphen" format="2">
  <advance width="760"/>
  <unicode hex="002D"/>
  <outline>
    <contour>
      <point x="80" y="597" type="line"/>
      <point x="80" y="667" type="line"/>
      <point x="380" y="665" type="line"/>
      <point x="680" y="667" type="line"/>
      <point x="680" y="597" type="line"/>
      <point x="380" y="599" type="line"/>
    </contour>
  </outline>
</glyph>
<glyph name="four" format="2">
  <advance width="1145"/>
  <unicode hex="0034"/>
  <outline>
    <contour>
      <point x="6" y="531" type="line"/>
      <point x="752" y="1548" type="line"/>
      <point x="794" y="1536" type="line"/>
      <point x="816" y="1501" type="line"/>
      <point x="810" y="491" type="line"/>
      <point x="810" y="65" type="line"/>
      <point x="1049" y="46" type="line"/>
      <point x="1049" y="0" type="line"/>
      <point x="479" y="0" type="line"/>
      <point x="479" y="46" type="line"/>
      <point x="729" y="65" type="line"/>
      <point x="738" y="489" type="line"/>
      <point x="738" y="1436" type="line"/>
      <point x="75" y="520" type="line"/>
      <point x="81" y="510" type="line"/>
      <point x="1105" y="507" type="line"/>
      <point x="1105" y="454" type="line"/>
      <point x="26" y="450" type="line"/>
    </contour>
  </outline>
</glyph>
<glyph name="seven" format="2">
  <advance width="999"/>
  <unicode hex="0037"/>
  <outline>
    <contour>
      <point x="24" y="1194" type="line"/>
      <point x="41" y="1500" type="line"/>
      <point x="1019" y="1500" type="line"/>
      <point x="1019" y="1455" type="line"/>
      <point x="626" y="651" type="line"/>
      <point x="308" y="-53" type="line"/>
      <point x="253" y="-53" type="line"/>
      <point x="253" y="20" type="line"/>
      <point x="572" y="673" type="line"/>
      <point x="932" y="1418" type="line"/>
      <point x="915" y="1428" type="line"/>
      <point x="110" y="1428" type="line"/>
      <point x="81" y="1194" type="line"/>
    </contour>
  </outline>
</glyph>
<glyph name="nine" format="2">
  <advance width="998"/>
  <unicode hex="0039"/>
  <outline>
    <contour>
      <point x="51" y="988" type="qcurve" smooth="yes"/>
      <point x="51" y="1238"/>
      <point x="281" y="1519"/>
      <point x="454" y="1519" type="qcurve" smooth="yes"/>
      <point x="662" y="1519"/>
      <point x="924" y="1159"/>
      <point x="924" y="876" type="qcurve" smooth="yes"/>
      <point x="924" y="547"/>
      <point x="570" y="35"/>
      <point x="195" y="-84" type="qcurve"/>
      <point x="176" y="-36" type="line"/>
      <point x="489" y="80"/>
      <point x="850" y="536"/>
      <point x="851" y="897" type="qcurve" smooth="yes"/>
      <point x="851" y="1181"/>
      <point x="617" y="1467"/>
      <point x="464" y="1467" type="qcurve" smooth="yes"/>
      <point x="304" y="1467"/>
      <point x="135" y="1239"/>
      <point x="135" y="1038" type="qcurve" smooth="yes"/>
      <point x="135" y="834"/>
      <point x="325" y="651"/>
      <point x="473" y="651" type="qcurve" smooth="yes"/>
      <point x="544" y="651"/>
      <point x="637" y="684"/>
      <point x="673" y="697" type="qcurve"/>
      <point x="694" y="662" type="line"/>
      <point x="654" y="626"/>
      <point x="502" y="569"/>
      <point x="431" y="569" type="qcurve" smooth="yes"/>
      <point x="260" y="569"/>
      <point x="51" y="808"/>
    </contour>
  </outline>
</glyph>
<glyph name="B" format="2">
  <advance width="1083"/>
  <unicode hex="0042"/>
  <outline>
    <contour>
      <point x="82" y="0" type="line"/>
      <point x="82" y="50" type="line"/>
      <point x="300" y="70" type="line"/>
      <point x="302" y="782" type="line"/>
      <point x="300" y="1425" type="line"/>
      <point x="82" y="1444" type="line"/>
      <point x="82" y="1500" type="line"/>
      <point x="575" y="1500" type="line" smooth="yes"/>
      <point x="743" y="1500"/>
      <point x="921" y="1329"/>
      <point x="921" y="1172" type="qcurve" smooth="yes"/>
      <point x="921" y="1019"/>
      <point x="812" y="853"/>
      <point x="699" y="826" type="qcurve"/>
      <point x="699" y="826" type="line"/>
      <point x="837" y="795"/>
      <point x="1007" y="618"/>
      <point x="1007" y="433" type="qcurve" smooth="yes"/>
      <point x="1007" y="232"/>
      <point x="775" y="0"/>
      <point x="590" y="0" type="qcurve" smooth="yes"/>
    </contour>
    <contour>
      <point x="379" y="90" type="line"/>
      <point x="415" y="56" type="line"/>
      <point x="538" y="56" type="line" smooth="yes"/>
      <point x="745" y="56"/>
      <point x="924" y="250"/>
      <point x="924" y="431" type="qcurve" smooth="yes"/>
      <point x="924" y="582"/>
      <point x="767" y="774"/>
      <point x="600" y="774" type="qcurve" smooth="yes"/>
      <point x="397" y="774" type="line"/>
      <point x="379" y="755" type="line"/>
    </contour>
    <contour>
      <point x="378" y="852" type="line"/>
      <point x="396" y="830" type="line"/>
      <point x="527" y="830" type="line" smooth="yes"/>
      <point x="693" y="830"/>
      <point x="843" y="1008"/>
      <point x="843" y="1154" type="qcurve" smooth="yes"/>
      <point x="843" y="1290"/>
      <point x="696" y="1438"/>
      <point x="536" y="1438" type="qcurve" smooth="yes"/>
      <point x="414" y="1438" type="line"/>
      <point x="381" y="1407" type="line"/>
    </contour>
  </outline>
</glyph>
<glyph name="D" format="2">
  <advance width="1429"/>
  <unicode hex="0044"/>
  <outline>
    <contour>
      <point x="82" y="0" type="line"/>
      <point x="82" y="50" type="line"/>
      <point x="300" y="70" type="line"/>
      <point x="302" y="753" type="line"/>
      <point x="300" y="1425" type="line"/>
      <point x="82" y="1444" type="line"/>
      <point x="82" y="1500" type="line"/>
      <point x="656" y="1500" type="line" smooth="yes"/>
      <point x="959" y="1500"/>
      <point x="1349" y="1133"/>
      <point x="1349" y="777" type="qcurve" smooth="yes"/>
      <point x="1349" y="396"/>
      <point x="960" y="0"/>
      <point x="619" y="0" type="qcurve" smooth="yes"/>
    </contour>
    <contour>
      <point x="378" y="73" type="line"/>
      <point x="425" y="65"/>
      <point x="565" y="55"/>
      <point x="665" y="55" type="qcurve" smooth="yes"/>
      <point x="942" y="55"/>
      <point x="1266" y="426"/>
      <point x="1268" y="797" type="qcurve" smooth="yes"/>
      <point x="1269" y="1079"/>
      <point x="931" y="1441"/>
      <point x="631" y="1441" type="qcurve" smooth="yes"/>
      <point x="548" y="1441"/>
      <point x="425" y="1432"/>
      <point x="378" y="1425" type="qcurve"/>
      <point x="376" y="757" type="line"/>
    </contour>
  </outline>
</glyph>
<glyph name="I" format="2">
  <advance width="700"/>
  <unicode hex="0049"/>
  <outline>
    <contour>
      <point x="82" y="0" type="line"/>
      <point x="82" y="50" type="line"/>
      <point x="311" y="70" type="line"/>
      <point x="313" y="754" type="line"/>
      <point x="311" y="1425" type="line"/>
      <point x="82" y="1444" type="line"/>
      <point x="82" y="1500" type="line"/>
      <point x="618" y="1500" type="line"/>
      <point x="618" y="1444" type="line"/>
      <point x="389" y="1425" type="line"/>
      <point x="387" y="754" type="line"/>
      <point x="389" y="70" type="line"/>
      <point x="618" y="50" type="line"/>
      <point x="618" y="0" type="line"/>
    </contour>
  </outline>
</glyph>
<glyph name="K" format="2">
  <advance width="1338"/>
  <unicode hex="004B"/>
  <outline>
    <contour>
      <point x="82" y="0" type="line"/>
      <point x="82" y="50" type="line"/>
      <point x="300" y="70" type="line"/>
      <point x="302" y="725" type="line"/>
      <point x="300" y="1425" type="line"/>
      <point x="82" y="1444" type="line"/>
      <point x="82" y="1500" type="line"/>
      <point x="586" y="1500" type="line"/>
      <point x="586" y="1444" type="line"/>
      <point x="379" y="1425" type="line"/>
      <point x="376" y="725" type="line"/>
      <point x="379" y="70" type="line"/>
      <point x="597" y="50" type="line"/>
      <point x="597" y="0" type="line"/>
    </contour>
    <contour>
      <point x="344" y="572" type="line"/>
      <point x="344" y="659" type="line"/>
      <point x="1093" y="1417" type="line"/>
      <point x="926" y="1444" type="line"/>
      <point x="926" y="1501" type="line"/>
      <point x="1356" y="1501" type="line"/>
      <point x="1356" y="1444" type="line"/>
      <point x="1181" y="1417" type="line"/>
      <point x="628" y="853" type="line"/>
      <point x="620" y="847" type="line"/>
    </contour>
    <contour>
      <point x="584" y="838" type="line"/>
      <point x="639" y="892" type="line"/>
      <point x="1258" y="70" type="line"/>
      <point x="1410" y="50" type="line"/>
      <point x="1410" y="0" type="line"/>
      <point x="975" y="0" type="line"/>
      <point x="975" y="50" type="line"/>
      <point x="1161" y="70" type="line"/>
    </contour>
  </outline>
</glyph>
<glyph name="Q" format="2">
  <advance width="1485"/>
  <unicode hex="0051"/>
  <outline>
    <contour>
      <point x="58" y="734" type="qcurve" smooth="yes"/>
      <point x="58" y="1084"/>
      <point x="437" y="1520"/>
      <point x="732" y="1520" type="qcurve" smooth="yes"/>
      <point x="1029" y="1520"/>
      <point x="1405" y="1112"/>
      <point x="1405" y="751" type="qcurve" smooth="yes"/>
      <point x="1405" y="413"/>
      <point x="1035" y="-35"/>
      <point x="737" y="-35" type="qcurve" smooth="yes"/>
      <point x="456" y="-35"/>
      <point x="58" y="373"/>
    </contour>
    <contour>
      <point x="138" y="779" type="qcurve"/>
      <point x="138" y="466"/>
      <point x="457" y="34"/>
      <point x="735" y="34" type="qcurve" smooth="yes"/>
      <point x="1036" y="34"/>
      <point x="1326" y="415"/>
      <point x="1326" y="749" type="qcurve" smooth="yes"/>
      <point x="1325" y="1035"/>
      <point x="1011" y="1454"/>
      <point x="734" y="1454" type="qcurve" smooth="yes"/>
      <point x="434" y="1454"/>
      <point x="139" y="1073"/>
    </contour>
    <contour>
      <point x="159" y="-259" type="qcurve"/>
      <point x="123" y="-224" type="line"/>
      <point x="183" y="-138"/>
      <point x="351" y="-41"/>
      <point x="479" y="-59" type="qcurve"/>
      <point x="528" y="35" type="line"/>
      <point x="580" y="10" type="line"/>
      <point x="533" y="-74" type="line"/>
      <point x="1218" y="-331" type="line"/>
      <point x="1293" y="-342"/>
      <point x="1434" y="-214"/>
      <point x="1459" y="-155" type="qcurve"/>
      <point x="1509" y="-184" type="line"/>
      <point x="1461" y="-290"/>
      <point x="1312" y="-418"/>
      <point x="1178" y="-402" type="qcurve"/>
      <point x="422" y="-105" type="line"/>
      <point x="353" y="-95"/>
      <point x="210" y="-187"/>
    </contour>
  </outline>
</glyph>
<glyph name="V" format="2">
  <advance width="1376"/>
  <unicode hex="0056"/>
  <outline>
    <contour>
      <point x="-22" y="1444" type="line"/>
      <point x="-22" y="1500" type="line"/>
      <point x="420" y="1500" type="line"/>
      <point x="420" y="1444" type="line"/>
      <point x="238" y="1420" type="line"/>
      <point x="469" y="799" type="line"/>
      <point x="688" y="217" type="line"/>
      <point x="923" y="806" type="line"/>
      <point x="1169" y="1425" type="line"/>
      <point x="965" y="1444" type="line"/>
      <point x="965" y="1500" type="line"/>
      <point x="1424" y="1500" type="line"/>
      <point x="1424" y="1444" type="line"/>
      <point x="1244" y="1422" type="line"/>
      <point x="979" y="753" type="line"/>
      <point x="672" y="-8" type="line"/>
      <point x="682" y="-8" type="line"/>
      <point x="394" y="768" type="line"/>
      <point x="147" y="1422" type="line"/>
    </contour>
  </outline>
</glyph>
<glyph name="underscore" format="2">
  <advance width="1513"/>
  <unicode hex="005F"/>
  <outline>
    <contour>
      <point x="-20" y="-447" type="line"/>
      <point x="-20" y="-381" type="line"/>
      <point x="761" y="-379" type="line"/>
      <point x="1533" y="-381" type="line"/>
      <point x="1533" y="-447" type="line"/>
      <point x="761" y="-454" type="line"/>
    </contour>
  </outline>
</glyph>
<glyph name="e" format="2">
  <advance width="853"/>
  <unicode hex="0065"/>
  <outline>
    <contour>
      <point x="63" y="491" type="qcurve" smooth="yes"/>
      <point x="63" y="718"/>
      <point x="283" y="1023"/>
      <point x="457" y="1023" type="qcurve" smooth="yes"/>
      <point x="604" y="1023"/>
      <point x="799" y="794"/>
      <point x="817" y="589" type="qcurve"/>
      <point x="817" y="554" type="line"/>
      <point x="110" y="554" type="line"/>
      <point x="110" y="603" type="line"/>
      <point x="741" y="603" type="line"/>
      <point x="723" y="763"/>
      <point x="567" y="967"/>
      <point x="447" y="967" type="qcurve" smooth="yes"/>
      <point x="302" y="967"/>
      <point x="137" y="729"/>
      <point x="138" y="522" type="qcurve" smooth="yes"/>
      <point x="139" y="291"/>
      <point x="348" y="49"/>
      <point x="493" y="49" type="qcurve" smooth="yes"/>
      <point x="611" y="49"/>
      <point x="744" y="108"/>
      <point x="786" y="159" type="qcurve"/>
      <point x="814" y="128" type="line"/>
      <point x="768" y="65"/>
      <point x="600" y="-21"/>
      <point x="494" y="-21" type="qcurve" smooth="yes"/>
      <point x="295" y="-21"/>
      <point x="63" y="249"/>
    </contour>
  </outline>
</glyph>
<glyph name="m" format="2">
  <advance width="1715"/>
  <unicode hex="006D"/>
  <outline>
    <contour>
      <point x="76" y="0" type="line"/>
      <point x="76" y="39" type="line"/>
      <point x="232" y="58" type="line"/>
      <point x="233" y="527" type="line"/>
      <point x="231" y="903" type="line"/>
      <point x="76" y="919" type="line"/>
      <point x="76" y="966" type="line"/>
      <point x="245" y="1000" type="line"/>
      <point x="280" y="973" type="line"/>
      <point x="305" y="854" type="line"/>
      <point x="358" y="928"/>
      <point x="527" y="1021"/>
      <point x="620" y="1021" type="qcurve" smooth="yes"/>
      <point x="730" y="1021"/>
      <point x="865" y="926"/>
      <point x="885" y="841" type="qcurve"/>
      <point x="930" y="920"/>
      <point x="1111" y="1021"/>
      <point x="1209" y="1021" type="qcurve" smooth="yes"/>
      <point x="1346" y="1021"/>
      <point x="1491" y="873"/>
      <point x="1491" y="742" type="qcurve" smooth="yes"/>
      <point x="1491" y="668"/>
      <point x="1490" y="528"/>
      <point x="1490" y="526" type="qcurve" smooth="yes"/>
      <point x="1491" y="58" type="line"/>
      <point x="1649" y="39" type="line"/>
      <point x="1649" y="0" type="line"/>
      <point x="1252" y="0" type="line"/>
      <point x="1252" y="39" type="line"/>
      <point x="1420" y="58" type="line"/>
      <point x="1419" y="588" type="line"/>
      <point x="1420" y="759" type="line" smooth="yes"/>
      <point x="1420" y="839"/>
      <point x="1305" y="936"/>
      <point x="1205" y="936" type="qcurve" smooth="yes"/>
      <point x="1109" y="936"/>
      <point x="950" y="857"/>
      <point x="894" y="787" type="qcurve"/>
      <point x="899" y="723"/>
      <point x="898" y="587"/>
      <point x="898" y="586" type="qcurve" smooth="yes"/>
      <point x="898" y="58" type="line"/>
      <point x="1057" y="39" type="line"/>
      <point x="1057" y="0" type="line"/>
      <point x="658" y="0" type="line"/>
      <point x="658" y="39" type="line"/>
      <point x="827" y="58" type="line"/>
      <point x="827" y="586" type="line"/>
      <point x="827" y="758" type="line" smooth="yes"/>
      <point x="827" y="838"/>
      <point x="709" y="936"/>
      <point x="615" y="936" type="qcurve" smooth="yes"/>
      <point x="519" y="936"/>
      <point x="355" y="854"/>
      <point x="304" y="784" type="qcurve"/>
      <point x="304" y="586" type="line"/>
      <point x="305" y="58" type="line"/>
      <point x="451" y="39" type="line"/>
      <point x="451" y="0" type="line"/>
    </contour>
  </outline>
</glyph>
<glyph name="s" format="2">
  <advance width="798"/>
  <unicode hex="0073"/>
  <outline>
    <contour>
      <point x="51" y="0" type="line"/>
      <point x="51" y="286" type="line"/>
      <point x="105" y="286" type="line"/>
      <point x="115" y="222" type="line" smooth="yes"/>
      <point x="133" y="126"/>
      <point x="308" y="30"/>
      <point x="434" y="30" type="qcurve" smooth="yes"/>
      <point x="558" y="30"/>
      <point x="705" y="143"/>
      <point x="705" y="246" type="qcurve" smooth="yes"/>
      <point x="705" y="340"/>
      <point x="554" y="460"/>
      <point x="378" y="514" type="qcurve" smooth="yes"/>
      <point x="204" y="569"/>
      <point x="84" y="681"/>
      <point x="84" y="781" type="qcurve" smooth="yes"/>
      <point x="84" y="903"/>
      <point x="242" y="1032"/>
      <point x="361" y="1032" type="qcurve" smooth="yes"/>
      <point x="455" y="1032"/>
      <point x="590" y="978"/>
      <point x="628" y="937" type="qcurve"/>
      <point x="639" y="1001" type="line"/>
      <point x="684" y="1001" type="line"/>
      <point x="684" y="740" type="line"/>
      <point x="633" y="740" type="line"/>
      <point x="616" y="832" type="line" smooth="yes"/>
      <point x="605" y="894"/>
      <point x="473" y="978"/>
      <point x="361" y="978" type="qcurve" smooth="yes"/>
      <point x="245" y="978"/>
      <point x="126" y="874"/>
      <point x="126" y="800" type="qcurve" smooth="yes"/>
      <point x="126" y="730"/>
      <point x="258" y="624"/>
      <point x="424" y="572" type="qcurve" smooth="yes"/>
      <point x="588" y="521"/>
      <point x="750" y="391"/>
      <point x="750" y="275" type="qcurve" smooth="yes"/>
      <point x="750" y="149"/>
      <point x="581" y="-23"/>
      <point x="449" y="-23" type="qcurve" smooth="yes"/>
      <point x="335" y="-23"/>
      <point x="170" y="30"/>
      <point x="120" y="73" type="qcurve"/>
      <point x="98" y="0" type="line"/>
    </contour>
  </outline>
</glyph>
<glyph name="x" format="2">
  <advance width="1092"/>
  <unicode hex="0078"/>
  <outline>
    <contour>
      <point x="30" y="0" type="line"/>
      <point x="30" y="39" type="line"/>
      <point x="187" y="58" type="line"/>
      <point x="534" y="532" type="line"/>
      <point x="544" y="544" type="line"/>
      <point x="829" y="941" type="line"/>
      <point x="667" y="957" type="line"/>
      <point x="667" y="1000" type="line"/>
      <point x="1043" y="1000" type="line"/>
      <point x="1043" y="957" type="line"/>
      <point x="892" y="938" type="line"/>
      <point x="575" y="509" type="line"/>
      <point x="568" y="499" type="line"/>
      <point x="252" y="56" type="line"/>
      <point x="406" y="39" type="line"/>
      <point x="406" y="0" type="line"/>
    </contour>
    <contour>
      <point x="78" y="957" type="line"/>
      <point x="78" y="1000" type="line"/>
      <point x="418" y="1000" type="line"/>
      <point x="418" y="957" type="line"/>
      <point x="277" y="937" type="line"/>
      <point x="588" y="537" type="line"/>
      <point x="973" y="58" type="line"/>
      <point x="1092" y="39" type="line"/>
      <point x="1092" y="0" type="line"/>
      <point x="741" y="0" type="line"/>
      <point x="741" y="39" type="line"/>
      <point x="884" y="59" type="line"/>
      <point x="543" y="491" type="line"/>
      <point x="194" y="938" type="line"/>
    </contour>
  </outline>
</glyph>
<glyph name="y" format="2">
  <advance width="1021"/>
  <unicode hex="0079"/>
  <outline>
    <contour>
      <point x="-9" y="957" type="line"/>
      <point x="-9" y="1000" type="line"/>
      <point x="341" y="1000" type="line"/>
      <point x="341" y="957" type="line"/>
      <point x="196" y="937" type="line"/>
      <point x="352" y="518" type="line"/>
      <point x="512" y="126" type="line"/>
      <point x="662" y="521" type="line"/>
      <point x="813" y="941" type="line"/>
      <point x="660" y="957" type="line"/>
      <point x="660" y="1000" type="line"/>
      <point x="1023" y="1000" type="line"/>
      <point x="1023" y="957" type="line"/>
      <point x="878" y="938" type="line"/>
      <point x="708" y="499" type="line"/>
      <point x="441" y="-231" type="line" smooth="yes"/>
      <point x="389" y="-373"/>
      <point x="231" y="-497"/>
      <point x="131" y="-487" type="qcurve"/>
      <point x="-8" y="-460" type="line"/>
      <point x="-8" y="-411" type="line"/>
      <point x="94" y="-417" type="line" smooth="yes"/>
      <point x="173" y="-422"/>
      <point x="337" y="-338"/>
      <point x="380" y="-228" type="qcurve" smooth="yes"/>
      <point x="476" y="14" type="line"/>
      <point x="291" y="488" type="line"/>
      <point x="108" y="938" type="line"/>
    </contour>
  </outline>
</glyph>
<glyph name="z" format="2">
  <advance width="808"/>
  <unicode hex="007A"/>
  <outline>
    <contour>
      <point x="32" y="0" type="line"/>
      <point x="32" y="49" type="line"/>
      <point x="669" y="946" type="line"/>
      <point x="135" y="946" type="line"/>
      <point x="109" y="802" type="line"/>
      <point x="60" y="802" type="line"/>
      <point x="60" y="1000" type="line"/>
      <point x="758" y="1000" type="line"/>
      <point x="758" y="952" type="line"/>
      <point x="114" y="53" type="line"/>
      <point x="698" y="53" type="line"/>
      <point x="725" y="197" type="line"/>
      <point x="774" y="197" type="line"/>
      <point x="774" y="0" type="line"/>
    </contour>
  </outline>
</glyph>
<glyph name="braceleft" format="2">
  <advance width="611"/>
  <unicode hex="007B"/>
  <outline>
    <contour>
      <point x="60" y="505" type="line"/>
      <point x="60" y="559" type="line"/>
      <point x="183" y="569" type="line" smooth="yes"/>
      <point x="235" y="573"/>
      <point x="290" y="677"/>
      <point x="290" y="736" type="qcurve" smooth="yes"/>
      <point x="290" y="833"/>
      <point x="192" y="1065"/>
      <point x="192" y="1201" type="qcurve" smooth="yes"/>
      <point x="192" y="1344"/>
      <point x="324" y="1510"/>
      <point x="447" y="1510" type="qcurve" smooth="yes"/>
      <point x="498" y="1510"/>
      <point x="563" y="1503"/>
      <point x="600" y="1500" type="qcurve"/>
      <point x="600" y="1446" type="line"/>
      <point x="553" y="1448"/>
      <point x="505" y="1448"/>
      <point x="454" y="1448" type="qcurve" smooth="yes"/>
      <point x="364" y="1448"/>
      <point x="268" y="1346"/>
      <point x="268" y="1243" type="qcurve" smooth="yes"/>
      <point x="268" y="1135"/>
      <point x="358" y="869"/>
      <point x="358" y="764" type="qcurve" smooth="yes"/>
      <point x="358" y="681"/>
      <point x="290" y="571"/>
      <point x="238" y="550" type="qcurve"/>
      <point x="308" y="518"/>
      <point x="358" y="385"/>
      <point x="358" y="314" type="qcurve" smooth="yes"/>
      <point x="358" y="222"/>
      <point x="236" y="-119"/>
      <point x="236" y="-227" type="qcurve" smooth="yes"/>
      <point x="236" y="-332"/>
      <point x="338" y="-435"/>
      <point x="427" y="-435" type="qcurve" smooth="yes"/>
      <point x="479" y="-435"/>
      <point x="548" y="-435"/>
      <point x="595" y="-433" type="qcurve"/>
      <point x="595" y="-484" type="line"/>
      <point x="558" y="-487"/>
      <point x="472" y="-495"/>
      <point x="420" y="-495" type="qcurve" smooth="yes"/>
      <point x="304" y="-495"/>
      <point x="161" y="-328"/>
      <point x="161" y="-187" type="qcurve" smooth="yes"/>
      <point x="161" y="-49"/>
      <point x="287" y="247"/>
      <point x="287" y="364" type="qcurve"/>
      <point x="264" y="505" type="line"/>
    </contour>
  </outline>
</glyph>
<glyph name="bar" format="2">
  <advance width="624"/>
  <unicode hex="007C"/>
  <outline>
    <contour>
      <point x="262" y="-540" type="line"/>
      <point x="264" y="-58" type="line"/>
      <point x="268" y="250" type="line"/>
      <point x="267" y="830" type="line"/>
      <point x="262" y="1138" type="line"/>
      <point x="261" y="1480" type="line"/>
      <point x="367" y="1550" type="line"/>
      <point x="364" y="1138" type="line"/>
      <point x="357" y="830" type="line"/>
      <point x="359" y="250" type="line"/>
      <point x="364" y="-58" type="line"/>
      <point x="366" y="-470" type="line"/>
    </contour>
  </outline>
</glyph>
<glyph name="guillemetleft" format="2">
  <advance width="1349"/>
  <unicode hex="00AB"/>
  <outline>
    <contour>
      <point x="25" y="625" type="line"/>
      <point x="25" y="625"/>
      <point x="679" y="1007"/>
      <point x="714" y="1028" type="qcurve" smooth="yes"/>
      <point x="745" y="1048"/>
      <point x="787" y="998"/>
      <point x="752" y="984" type="qcurve" smooth="yes"/>
      <point x="669" y="950"/>
      <point x="121" y="609"/>
      <point x="121" y="609" type="qcurve"/>
      <point x="121" y="609"/>
      <point x="702" y="245"/>
      <point x="757" y="226" type="qcurve" smooth="yes"/>
      <point x="793" y="213"/>
      <point x="760" y="160"/>
      <point x="725" y="177" type="qcurve" smooth="yes"/>
      <point x="693" y="193"/>
      <point x="103" y="536"/>
      <point x="26" y="584" type="qcurve"/>
    </contour>
    <contour>
      <point x="550" y="614" type="line"/>
      <point x="550" y="614"/>
      <point x="1200" y="1005"/>
      <point x="1238" y="1027" type="qcurve" smooth="yes"/>
      <point x="1269" y="1047"/>
      <point x="1311" y="997"/>
      <point x="1274" y="982" type="qcurve" smooth="yes"/>
      <point x="1194" y="951"/>
      <point x="647" y="610"/>
      <point x="647" y="610" type="qcurve"/>
      <point x="647" y="610"/>
      <point x="1226" y="249"/>
      <point x="1282" y="228" type="qcurve" smooth="yes"/>
      <point x="1316" y="215"/>
      <point x="1284" y="163"/>
      <point x="1248" y="179" type="qcurve"/>
      <point x="1217" y="195"/>
      <point x="628" y="546"/>
      <point x="550" y="594" type="qcurve"/>
    </contour>
  </outline>
</glyph>
<glyph name="Schwa" format="2">
  <advance width="1273"/>
  <unicode hex="018F"/>
  <outline>
    <contour>
      <point x="89" y="1179" type="line"/>
      <point x="125" y="1304"/>
      <point x="403" y="1519"/>
      <point x="589" y="1519" type="qcurve" smooth="yes"/>
      <point x="876" y="1519"/>
      <point x="1193" y="1095"/>
      <point x="1193" y="789" type="qcurve" smooth="yes"/>
      <point x="1193" y="444"/>
      <point x="866" y="-30"/>
      <point x="615" y="-30" type="qcurve" smooth="yes"/>
      <point x="377" y="-30"/>
      <point x="99" y="298"/>
      <point x="99" y="596" type="qcurve" smooth="yes"/>
      <point x="99" y="645" type="line"/>
      <point x="1141" y="645" type="line"/>
      <point x="1127" y="584" type="line"/>
      <point x="600" y="587" type="line"/>
      <point x="184" y="580" type="line"/>
      <point x="184" y="483" type="line" smooth="yes"/>
      <point x="184" y="316"/>
      <point x="408" y="29"/>
      <point x="620" y="29" type="qcurve" smooth="yes"/>
      <point x="844" y="29"/>
      <point x="1117" y="463"/>
      <point x="1115" y="748" type="qcurve" smooth="yes"/>
      <point x="1112" y="1046"/>
      <point x="817" y="1452"/>
      <point x="619" y="1452" type="qcurve" smooth="yes"/>
      <point x="443" y="1452"/>
      <point x="174" y="1257"/>
      <point x="126" y="1145" type="qcurve"/>
    </contour>
  </outline>
</glyph>
<glyph name="quoteleft" format="2">
  <advance width="600"/>
  <unicode hex="2018"/>
  <outline>
    <contour>
      <point x="456" y="1525" type="line"/>
      <point x="419" y="1497"/>
      <point x="282" y="1368"/>
      <point x="255" y="1273" type="qcurve"/>
      <point x="288" y="1291"/>
      <point x="352" y="1236"/>
      <point x="352" y="1164" type="qcurve" smooth="yes"/>
      <point x="352" y="1110"/>
      <point x="317" y="1033"/>
      <point x="271" y="1033" type="qcurve" smooth="yes"/>
      <point x="230" y="1033"/>
      <point x="188" y="1095"/>
      <point x="188" y="1180" type="qcurve" smooth="yes"/>
      <point x="188" y="1280"/>
      <point x="338" y="1497"/>
      <point x="431" y="1555" type="qcurve"/>
    </contour>
  </outline>
</glyph>
<glyph name="euro" format="2">
  <advance width="1040"/>
  <unicode hex="20AC"/>
  <outline>
    <contour>
      <point x="216" y="746" type="qcurve" smooth="yes"/>
      <point x="216" y="1132"/>
      <point x="493" y="1520"/>
      <point x="682" y="1520" type="qcurve" smooth="yes"/>
      <point x="756" y="1520"/>
      <point x="908" y="1456"/>
      <point x="974" y="1378" type="qcurve"/>
      <point x="941" y="1344" type="line"/>
      <point x="880" y="1404"/>
      <point x="752" y="1458"/>
      <point x="676" y="1458" type="qcurve" smooth="yes"/>
      <point x="497" y="1458"/>
      <point x="291" y="1105"/>
      <point x="292" y="773" type="qcurve" smooth="yes"/>
      <point x="293" y="451"/>
      <point x="509" y="26"/>
      <point x="693" y="26" type="qcurve" smooth="yes"/>
      <point x="766" y="26"/>
      <point x="912" y="85"/>
      <point x="974" y="164" type="qcurve"/>
      <point x="1003" y="133" type="line"/>
      <point x="937" y="38"/>
      <point x="769" y="-30"/>
      <point x="706" y="-30" type="qcurve" smooth="yes"/>
      <point x="484" y="-30"/>
      <point x="216" y="375"/>
    </contour>
    <contour>
      <point x="71" y="876" type="line"/>
      <point x="78" y="953" type="line"/>
      <point x="842" y="953" type="line"/>
      <point x="853" y="876" type="line"/>
    </contour>
    <contour>
      <point x="53" y="561" type="line"/>
      <point x="51" y="637" type="line"/>
      <point x="841" y="637" type="line"/>
      <point x="831" y="561" type="line"/>
    </contour>
  </outline>
</glyph>
<glyph name="guarani" format="2">
  <advance width="1333"/>
  <unicode hex="20B2"/>
  <outline>
    <contour>
      <point x="80" y="734" type="qcurve" smooth="yes"/>
      <point x="80" y="1067"/>
      <point x="470" y="1520"/>
      <point x="772" y="1520" type="qcurve" smooth="yes"/>
      <point x="888" y="1520"/>
      <point x="1104" y="1448"/>
      <point x="1139" y="1412" type="qcurve"/>
      <point x="1152" y="1487" type="line"/>
      <point x="1205" y="1487" type="line"/>
      <point x="1204" y="1111" type="line"/>
      <point x="1145" y="1112" type="line"/>
      <point x="1127" y="1245" type="line" smooth="yes"/>
      <point x="1116" y="1326"/>
      <point x="890" y="1455"/>
      <point x="715" y="1455" type="qcurve" smooth="yes"/>
      <point x="445" y="1455"/>
      <point x="157" y="1097"/>
      <point x="158" y="769" type="qcurve" smooth="yes"/>
      <point x="159" y="435"/>
      <point x="486" y="50"/>
      <point x="736" y="50" type="qcurve" smooth="yes"/>
      <point x="901" y="50"/>
      <point x="1157" y="202"/>
      <point x="1157" y="338" type="qcurve" smooth="yes"/>
      <point x="1157" y="417" type="line" smooth="yes"/>
      <point x="1157" y="470"/>
      <point x="1079" y="533"/>
      <point x="946" y="539" type="qcurve"/>
      <point x="946" y="599" type="line"/>
      <point x="1331" y="599" type="line"/>
      <point x="1330" y="538" type="line"/>
      <point x="1211" y="519" type="line"/>
      <point x="1238" y="228" type="line"/>
      <point x="1178" y="133"/>
      <point x="895" y="-11"/>
      <point x="755" y="-11" type="qcurve" smooth="yes"/>
      <point x="461" y="-11"/>
      <point x="80" y="393"/>
    </contour>
    <contour>
      <point x="389" y="-122" type="line"/>
      <point x="458" y="119" type="line"/>
      <point x="465" y="117" type="line"/>
      <point x="658" y="836" type="line"/>
      <point x="715" y="804" type="line"/>
      <point x="517" y="70" type="line"/>
      <point x="524" y="68" type="line"/>
      <point x="473" y="-121" type="line"/>
    </contour>
    <contour>
      <point x="863" y="1618" type="line"/>
      <point x="946" y="1618" type="line"/>
      <point x="896" y="1445" type="line"/>
      <point x="888" y="1447" type="line"/>
      <point x="715" y="804" type="line"/>
      <point x="658" y="836" type="line"/>
      <point x="825" y="1458" type="line"/>
      <point x="818" y="1460" type="line"/>
    </contour>
  </outline>
</glyph>
<glyph name="cedi" format="2">
  <advance width="1235"/>
  <unicode hex="20B5"/>
  <outline>
    <contour>
      <point x="114" y="710" type="qcurve" smooth="yes"/>
      <point x="114" y="1007"/>
      <point x="468" y="1453"/>
      <point x="739" y="1453" type="qcurve" smooth="yes"/>
      <point x="874" y="1453"/>
      <point x="1031" y="1389"/>
      <point x="1083" y="1348" type="qcurve"/>
      <point x="1097" y="1430" type="line"/>
      <point x="1148" y="1429" type="line"/>
      <point x="1147" y="1038" type="line"/>
      <point x="1094" y="1038" type="line"/>
      <point x="1076" y="1194" type="line" smooth="yes"/>
      <point x="1063" y="1295"/>
      <point x="863" y="1395"/>
      <point x="727" y="1395" type="qcurve" smooth="yes"/>
      <point x="483" y="1395"/>
      <point x="176" y="1048"/>
      <point x="179" y="726" type="qcurve" smooth="yes"/>
      <point x="181" y="421"/>
      <point x="467" y="91"/>
      <point x="706" y="91" type="qcurve" smooth="yes"/>
      <point x="875" y="91"/>
      <point x="1121" y="231"/>
      <point x="1183" y="325" type="qcurve"/>
      <point x="1225" y="288" type="line"/>
      <point x="1161" y="180"/>
      <point x="918" y="19"/>
      <point x="726" y="19" type="qcurve" smooth="yes"/>
      <point x="450" y="19"/>
      <point x="114" y="405"/>
    </contour>
    <contour>
      <point x="382" y="-127" type="line"/>
      <point x="459" y="147" type="line"/>
      <point x="459" y="145" type="line"/>
      <point x="627" y="818" type="line"/>
      <point x="698" y="786" type="line"/>
      <point x="527" y="102" type="line"/>
      <point x="528" y="100" type="line"/>
      <point x="467" y="-126" type="line"/>
    </contour>
    <contour>
      <point x="828" y="1597" type="line"/>
      <point x="911" y="1597" type="line"/>
      <point x="865" y="1427" type="line"/>
      <point x="864" y="1429" type="line"/>
      <point x="698" y="786" type="line"/>
      <point x="627" y="818" type="line"/>
      <point x="788" y="1440" type="line"/>
      <point x="787" y="1442" type="line"/>
    </contour>
  </outline>
</glyph>
<glyph name="liraTurkish" format="2">
  <advance width="1112"/>
  <unicode hex="20BA"/>
  <outline>
    <contour>
      <point x="279" y="-26" type="line"/>
      <point x="259" y="-8" type="line"/>
      <point x="352" y="72" type="line"/>
      <point x="356" y="661" type="line"/>
      <point x="352" y="1416" type="line"/>
      <point x="165" y="1437" type="line"/>
      <point x="165" y="1500" type="line"/>
      <point x="326" y="1492" type="line"/>
      <point x="668" y="1493" type="line"/>
      <point x="666" y="1429" type="line"/>
      <point x="431" y="1416" type="line"/>
      <point x="424" y="679" type="line"/>
      <point x="426" y="85" type="line"/>
      <point x="450" y="66" type="line"/>
      <point x="640" y="113"/>
      <point x="943" y="370"/>
      <point x="993" y="565" type="qcurve" smooth="yes"/>
      <point x="1043" y="758" type="line"/>
      <point x="1100" y="758" type="line"/>
      <point x="1064" y="399" type="line"/>
      <point x="956" y="244"/>
      <point x="584" y="19"/>
      <point x="422" y="-5" type="qcurve" smooth="yes"/>
    </contour>
    <contour>
      <point x="105" y="517" type="line"/>
      <point x="87" y="581" type="line"/>
      <point x="389" y="691" type="line"/>
      <point x="389" y="689" type="line"/>
      <point x="765" y="855" type="line"/>
      <point x="756" y="772" type="line"/>
      <point x="389" y="625" type="line"/>
      <point x="389" y="624" type="line"/>
    </contour>
    <contour>
      <point x="117" y="818" type="line"/>
      <point x="98" y="882" type="line"/>
      <point x="401" y="989" type="line"/>
      <point x="401" y="988" type="line"/>
      <point x="816" y="1157" type="line"/>
      <point x="806" y="1071" type="line"/>
      <point x="402" y="921" type="line"/>
      <point x="402" y="920" type="line"/>
    </contour>
  </outline>
</glyph>
<glyph name="numero" format="2">
  <advance width="2407"/>
  <unicode hex="2116"/>
  <outline>
    <contour>
      <point x="96" y="0" type="line"/>
      <point x="96" y="49" type="line"/>
      <point x="315" y="69" type="line"/>
      <point x="326" y="754" type="line"/>
      <point x="335" y="1432" type="line"/>
      <point x="158" y="1445" type="line"/>
      <point x="158" y="1500" type="line"/>
      <point x="424" y="1500" type="line"/>
      <point x="826" y="790" type="line"/>
      <point x="1098" y="328" type="line"/>
      <point x="1097" y="755" type="line"/>
      <point x="1085" y="1426" type="line"/>
      <point x="858" y="1445" type="line"/>
      <point x="858" y="1500" type="line"/>
      <point x="1341" y="1500" type="line"/>
      <point x="1341" y="1445" type="line"/>
      <point x="1144" y="1426" type="line"/>
      <point x="1152" y="755" type="line"/>
      <point x="1176" y="0" type="line"/>
      <point x="1195" y="0" type="line"/>
      <point x="765" y="749" type="line"/>
      <point x="389" y="1389" type="line"/>
      <point x="383" y="754" type="line"/>
      <point x="375" y="69" type="line"/>
      <point x="573" y="49" type="line"/>
      <point x="573" y="0" type="line"/>
    </contour>
    <contour>
      <point x="1345" y="992" type="qcurve" smooth="yes"/>
      <point x="1345" y="1190"/>
      <point x="1558" y="1510"/>
      <point x="1714" y="1510" type="qcurve" smooth="yes"/>
      <point x="1872" y="1510"/>
      <point x="2085" y="1208"/>
      <point x="2085" y="998" type="qcurve" smooth="yes"/>
      <point x="2085" y="802"/>
      <point x="1874" y="475"/>
      <point x="1718" y="475" type="qcurve" smooth="yes"/>
      <point x="1560" y="475"/>
      <point x="1345" y="780"/>
    </contour>
    <contour>
      <point x="1423" y="1019" type="qcurve" smooth="yes"/>
      <point x="1424" y="809"/>
      <point x="1587" y="523"/>
      <point x="1714" y="523" type="qcurve" smooth="yes"/>
      <point x="1852" y="523"/>
      <point x="2007" y="783"/>
      <point x="2007" y="999" type="qcurve" smooth="yes"/>
      <point x="2007" y="1202"/>
      <point x="1843" y="1458"/>
      <point x="1715" y="1458" type="qcurve" smooth="yes"/>
      <point x="1578" y="1458"/>
      <point x="1422" y="1225"/>
    </contour>
    <contour>
      <point x="1518" y="281" type="qcurve" smooth="yes"/>
      <point x="1518" y="297"/>
      <point x="1632" y="320"/>
      <point x="1720" y="320" type="qcurve" smooth="yes"/>
      <point x="1807" y="320"/>
      <point x="1921" y="297"/>
      <point x="1921" y="281" type="qcurve" smooth="yes"/>
      <point x="1921" y="265"/>
      <point x="1807" y="242"/>
      <point x="1719" y="242" type="qcurve" smooth="yes"/>
      <point x="1632" y="242"/>
      <point x="1518" y="265"/>
    </contour>
  </outline>
</glyph>
<glyph name="lessequal" format="2">
  <advance width="1055"/>
  <unicode hex="2264"/>
  <outline>
    <contour>
      <point x="130" y="46" type="line"/>
      <point x="130" y="198" type="line"/>
      <point x="965" y="198" type="line"/>
      <point x="965" y="46" type="line"/>
    </contour>
    <contour>
      <point x="162" y="700" type="qcurve"/>
      <point x="162" y="700"/>
      <point x="655" y="1037"/>
      <point x="723" y="1085" type="qcurve" smooth="yes"/>
      <point x="790" y="1133"/>
      <point x="871" y="1041"/>
      <point x="812" y="990" type="qcurve" smooth="yes"/>
      <point x="680" y="879"/>
      <point x="462" y="720"/>
      <point x="394" y="697" type="qcurve"/>
      <point x="455" y="674"/>
      <point x="692" y="501"/>
      <point x="812" y="393" type="qcurve" smooth="yes"/>
      <point x="873" y="340"/>
      <point x="790" y="251"/>
      <point x="724" y="298" type="qcurve" smooth="yes"/>
      <point x="655" y="346"/>
      <point x="162" y="700"/>
    </contour>
  </outline>
</glyph>
<glyph name="leftanglebracket" format="2">
  <advance width="934"/>
  <unicode hex="27E8"/>
  <outline>
    <contour>
      <point x="913" y="1496" type="line"/>
      <point x="910" y="1497" type="line"/>
      <point x="102" y="717" type="line"/>
      <point x="895" y="-158" type="line"/>
      <point x="904" y="-151" type="line"/>
      <point x="24" y="668" type="line"/>
      <point x="24" y="755" type="line"/>
    </contour>
  </outline>
</glyph>
<glyph name="rightanglebracket" format="2">
  <advance width="934"/>
  <unicode hex="27E9"/>
  <outline>
    <contour>
      <point x="42" y="-176" type="line"/>
      <point x="2" y="-135" type="line"/>
      <point x="832" y="630" type="line"/>
      <point x="38" y="1499" type="line"/>
      <point x="29" y="1492" type="line"/>
      <point x="910" y="673" type="line"/>
      <point x="910" y="586" type="line"/>
    </contour>
  </outline>
</glyph>
